<svg width="311px" height="219px" viewBox="0 0 311 219" version="1.1" xmlns="http://www.w3.org/2000/svg">
  <g id="2021-03-30-ods-adesso-dialog-banner-002" stroke="none" stroke-width="1" fill="none" fill-rule="evenodd">
    <path d="M68.8618966,113.193548 C109.068413,113.193548 147.324482,109.16129 148.942268,68.0322581 C150.560053,26.9032258 117.966232,14 77.7597156,14 C37.5531996,14 30.8439427,16.4193548 24.3728016,49.483871 C20.3430608,70.0739689 25.1816942,106.741935 38.9328691,139 C44.5951175,117.225806 53.6929798,113.193548 68.8618966,113.193548 Z"
          id="Oval-Copy-6" fill="#D6F0FE"
          transform="translate(86.000000, 76.500000) scale(-1, 1) translate(-86.000000, -76.500000) "></path>
    <path d="M214.134963,121.111619 C262.254011,121.111619 309.00685,105.340948 310.943011,56.1892809 C312.879171,7.03761422 265.158252,8.00137239 217.039205,8.00137239 C168.920158,8.00137239 127.007721,25.3490195 119.263077,64.8631045 C114.440295,89.4695097 121.199238,129.434902 179.284067,141 C175.411745,111.123497 195.980846,121.111619 214.134963,121.111619 Z"
          id="Oval-Copy-5" fill="#D6F0FE"></path>
    <path d="M234.805195,194 C262.822887,194 290,191.565574 290,146.934426 C290,102.303279 276.201299,95 236.428571,95 C196.655844,95 178.702352,100.619043 183.668831,139.631148 C187.45671,169.385246 181.233766,186.967213 165,192.377049 C202.501772,193.459016 225.77017,194 234.805195,194 Z"
          id="Oval-Copy-4" fill="#D6F0FE"></path>
    <path d="M50.8287628,218.247738 C78.7441503,218.247738 127.657589,212.586667 127.657589,168.10682 C127.657589,123.626973 111.483099,92.895443 71.8555994,92.895443 C32.2280997,92.895443 0.679441202,120.324847 5.5401917,159.210851 C7.15764067,172.150443 27.9843129,171.778083 31.2192108,186.335124 C33.3199011,195.78823 27.7255511,203.999595 14.436161,210.969218 C29.6958618,215.821565 41.8267291,218.247738 50.8287628,218.247738 Z"
          id="Oval-Copy-3" fill="#D6F0FE"
          transform="translate(66.351158, 155.571591) scale(-1, 1) rotate(15.000000) translate(-66.351158, -155.571591) "></path>
    <path d="M63.8618966,107.193548 C104.068413,107.193548 142.324482,103.16129 143.942268,62.0322581 C145.560053,20.9032258 112.966232,8 72.7597156,8 C32.5531996,8 25.8439427,10.4193548 19.3728016,43.483871 C15.3430608,64.0739689 20.1816942,100.741935 33.9328691,133 C39.5951175,111.225806 48.6929798,107.193548 63.8618966,107.193548 Z"
          id="Oval-Copy-2" fill="#F5D652"
          transform="translate(81.000000, 70.500000) scale(-1, 1) translate(-81.000000, -70.500000) "></path>
    <path d="M47.5079776,69.4757817 C50.2124307,69.4757817 52.3223249,68.6574699 53.8376605,67.0208461 C55.352996,65.3842224 56.1106638,63.1152667 56.1106638,60.2139792 C56.1106638,58.343552 55.7633994,56.712242 55.0688706,55.320049 C54.3743418,53.9278561 53.3799029,52.8597997 52.0855537,52.1158798 C50.7912046,51.3719599 49.2969154,51 47.6026861,51 C44.8771868,51 42.7620309,51.8076844 41.2572186,53.4230533 C39.7524062,55.0384222 39,57.3020642 39,60.2139792 C39,62.0844063 39.3472644,63.72103 40.0417932,65.1238504 C40.736322,66.5266708 41.7307609,67.6026977 43.02511,68.3519313 C44.3194591,69.1011649 45.8137483,69.4757817 47.5079776,69.4757817 Z M47.5711166,65.5702023 C46.2767675,65.5702023 45.3428368,65.1185367 44.7693244,64.2152054 C44.195812,63.3118741 43.9090557,61.978132 43.9090557,60.2139792 C43.9090557,58.4391989 44.1931812,57.1134273 44.761432,56.2366646 C45.3296828,55.3599019 46.2557212,54.9215205 47.5395471,54.9215205 C48.8338962,54.9215205 49.7651962,55.3625588 50.333447,56.2446352 C50.9016979,57.1267116 51.1858233,58.4498263 51.1858233,60.2139792 C51.1858233,61.9887595 50.9043286,63.3251584 50.3413394,64.223176 C49.7783502,65.1211935 48.8549426,65.5702023 47.5711166,65.5702023 Z M62.2578175,77 L62.2578175,69.7786634 C62.2578175,69.54486 62.1736322,68.6840384 62.0052616,67.1961987 L62.0052616,67.1961987 L62.2578175,67.1961987 C63.4364118,68.7159207 65.0622406,69.4757817 67.1353038,69.4757817 C68.5138382,69.4757817 69.7134788,69.1091355 70.7342257,68.375843 C71.7549725,67.6425506 72.541579,66.5744942 73.0940451,65.1716738 C73.6465111,63.7688535 73.9227442,62.1162886 73.9227442,60.2139792 C73.9227442,57.323319 73.333447,55.0649908 72.1548527,53.4389945 C70.9762584,51.8129982 69.3451681,51 67.2615817,51 C65.0517174,51 63.383796,51.8820764 62.2578175,53.6462293 L62.2578175,53.6462293 L62.0368311,53.6462293 L61.358087,51.3347639 L57.4434702,51.3347639 L57.4434702,77 L62.2578175,77 Z M65.7778157,65.53832 C64.5571287,65.53832 63.6652906,65.1238504 63.1023014,64.2949111 C62.5393121,63.4659718 62.2578175,62.0950337 62.2578175,60.1820969 L62.2578175,60.1820969 L62.2578175,59.6560392 C62.2788638,57.9556509 62.5629892,56.7361537 63.1101937,55.9975475 C63.6573982,55.2589413 64.5255592,54.8896383 65.7146767,54.8896383 C66.8511783,54.8896383 67.6851391,55.3280196 68.2165588,56.2047823 C68.7479786,57.0815451 69.0136884,58.3966891 69.0136884,60.1502146 C69.0136884,63.7422849 67.9350642,65.53832 65.7778157,65.53832 Z M83.2426317,69.4757817 C84.6211661,69.4757817 85.7892373,69.3721643 86.7468451,69.1649295 C87.704453,68.9576947 88.6041835,68.6415287 89.4460366,68.2164316 L89.4460366,68.2164316 L89.4460366,64.4543225 C88.4147665,64.9431841 87.4255892,65.2992029 86.4785045,65.5223789 C85.5314198,65.7455549 84.5264576,65.8571429 83.4636181,65.8571429 C82.0956069,65.8571429 81.0327674,65.4692418 80.2750996,64.6934396 C79.5174318,63.9176374 79.1122901,62.8389536 79.0596742,61.4573881 L79.0596742,61.4573881 L90.4404755,61.4573881 L90.4404755,59.0980993 C90.4404755,56.5687717 89.7459467,54.5867566 88.3568891,53.152054 C86.9678316,51.7173513 85.0263079,51 82.5323182,51 C79.9225736,51 77.8784491,51.815655 76.3999447,53.4469651 C74.9214402,55.0782751 74.182188,57.3870836 74.182188,60.3733906 C74.182188,63.2746781 74.9819484,65.5170652 76.5814692,67.1005518 C78.1809901,68.6840384 80.4013776,69.4757817 83.2426317,69.4757817 Z M85.9260384,58.2213366 L79.1701675,58.2213366 C79.2543528,57.0204374 79.5858324,56.0931944 80.1646064,55.4396076 C80.7433804,54.7860208 81.5431408,54.4592275 82.5638877,54.4592275 C83.5846345,54.4592275 84.3949181,54.7860208 84.9947384,55.4396076 C85.5945587,56.0931944 85.9049921,57.0204374 85.9260384,58.2213366 L85.9260384,58.2213366 Z M96.5244903,69.1569589 L96.5244903,60.7719191 C96.5244903,58.6676885 96.8244004,57.1612508 97.4242207,56.2526058 C98.0240411,55.3439608 98.9974337,54.8896383 100.344399,54.8896383 C101.333576,54.8896383 102.054413,55.2111179 102.506909,55.8540773 C102.959405,56.4970366 103.185653,57.4614756 103.185653,58.7473942 L103.185653,58.7473942 L103.185653,69.1569589 L108,69.1569589 L108,57.5358676 C108,55.4210096 107.46858,53.8029839 106.405741,52.6817903 C105.342901,51.5605968 103.785473,51 101.733456,51 C100.533816,51 99.4630837,51.2205191 98.5212605,51.6615573 C97.5794374,52.1025955 96.8401852,52.7535254 96.3035038,53.614347 L96.3035038,53.614347 L96.0351632,53.614347 L95.3879886,51.3347639 L91.710143,51.3347639 L91.710143,69.1569589 L96.5244903,69.1569589 Z"
          id="open" fill="#FFFFFF" fill-rule="nonzero"></path>
    <path d="M209.134963,115.111619 C257.254011,115.111619 304.00685,99.3409477 305.943011,50.1892809 C307.879171,1.03761422 260.158252,2.00137239 212.039205,2.00137239 C163.920158,2.00137239 122.007721,19.3490195 114.263077,58.8631045 C109.440295,83.4695097 116.199238,123.434902 174.284067,135 C170.411745,105.123497 190.980846,115.111619 209.134963,115.111619 Z"
          id="Oval" fill="#00C0CB"></path>
    <path d="M162.441083,69.8894504 C163.814459,69.8894504 164.928361,69.6920404 165.782789,69.2972205 C166.637217,68.9024005 167.468057,68.1943567 168.275308,67.1730891 L168.275308,67.1730891 L168.401114,67.1730891 L169.328928,69.5735944 L172.678497,69.5735944 L172.678497,57.8079596 C172.678497,55.7022531 172.04947,54.1335018 170.791416,53.1017056 C169.533362,52.0699095 167.72491,51.5540114 165.366059,51.5540114 C162.90237,51.5540114 160.65884,52.0857023 158.63547,53.149084 L158.63547,53.149084 L160.223763,56.4024005 C162.121328,55.5495894 163.772524,55.1231838 165.177351,55.1231838 C167.001529,55.1231838 167.913618,56.0181091 167.913618,57.8079596 L167.913618,57.8079596 L167.913618,58.5818067 L164.862837,58.6765635 C162.231408,58.7713203 160.263077,59.2635292 158.957846,60.1531901 C157.652615,61.0428511 157,62.424721 157,64.2987997 C157,66.0886502 157.484875,67.467888 158.454625,68.436513 C159.424375,69.4051379 160.753194,69.8894504 162.441083,69.8894504 Z M164.249536,66.3676563 C162.697936,66.3676563 161.922136,65.688566 161.922136,64.3303853 C161.922136,63.3828174 162.262859,62.6774058 162.944305,62.2141503 C163.625751,61.7508949 164.663645,61.4982101 166.057988,61.456096 L166.057988,61.456096 L167.913618,61.3929248 L167.913618,62.8458623 C167.913618,63.9092441 167.580758,64.7620552 166.915037,65.4042956 C166.249317,66.0465361 165.360817,66.3676563 164.249536,66.3676563 Z M180.548196,69.8894504 C182.781242,69.8894504 184.442921,69.0208465 185.533235,67.2836387 L185.533235,67.2836387 L185.737669,67.2836387 L186.665483,69.5735944 L190.345291,69.5735944 L190.345291,45 L185.533235,45 L185.533235,50.6538219 C185.533235,51.685618 185.653798,52.8595494 185.894925,54.1756159 L185.894925,54.1756159 L185.737669,54.1756159 C184.573969,52.4489366 182.88608,51.585597 180.674002,51.585597 C178.566761,51.585597 176.912945,52.3936618 175.712551,54.0097915 C174.512158,55.6259212 173.911962,57.8816593 173.911962,60.7770057 C173.911962,63.6302379 174.501674,65.8622868 175.6811,67.4731522 C176.860526,69.0840177 178.482891,69.8894504 180.548196,69.8894504 Z M182.230843,66.0518004 C181.119562,66.0518004 180.265134,65.6174984 179.667558,64.7488945 C179.069983,63.8802906 178.771195,62.5773847 178.771195,60.8401769 C178.771195,59.102969 179.067362,57.7790061 179.659696,56.8682881 C180.252029,55.95757 181.082869,55.502211 182.152215,55.502211 C183.462688,55.502211 184.408849,55.9128238 184.990699,56.7340493 C185.572549,57.5552748 185.863474,58.9134555 185.863474,60.8085913 L185.863474,60.8085913 L185.863474,61.3297536 C185.811055,63.0459044 185.499163,64.2619499 184.927796,64.9778901 C184.35643,65.6938303 183.457446,66.0518004 182.230843,66.0518004 Z M200.683921,69.8894504 C202.057297,69.8894504 203.220996,69.7867972 204.175021,69.5814908 C205.129045,69.3761845 206.025408,69.0629606 206.864111,68.6418193 L206.864111,68.6418193 L206.864111,64.9147189 C205.8367,65.3990314 204.851225,65.7517372 203.907684,65.9728364 C202.964144,66.1939356 201.962943,66.3044852 200.90408,66.3044852 C199.541189,66.3044852 198.482327,65.9201937 197.727494,65.1516109 C196.972662,64.383028 196.569036,63.314382 196.516617,61.9456728 L196.516617,61.9456728 L207.854828,61.9456728 L207.854828,59.6083386 C207.854828,57.1025479 207.162899,55.1389766 205.779039,53.7176248 C204.39518,52.2962729 202.460922,51.585597 199.976266,51.585597 C197.376288,51.585597 195.339813,52.3936618 193.866841,54.0097915 C192.39387,55.6259212 191.657384,57.9132449 191.657384,60.8717625 C191.657384,63.7460518 192.454152,65.9675721 194.047687,67.5363234 C195.641222,69.1050748 197.8533,69.8894504 200.683921,69.8894504 Z M203.357286,58.7397347 L196.626697,58.7397347 C196.710567,57.5500105 197.040807,56.6313961 197.617415,55.9838913 C198.194023,55.3363866 198.99079,55.0126342 200.007717,55.0126342 C201.024644,55.0126342 201.831895,55.3363866 202.429471,55.9838913 C203.027046,56.6313961 203.336318,57.5500105 203.357286,58.7397347 L203.357286,58.7397347 Z M213.884624,69.8894504 C216.379764,69.8894504 218.25374,69.4156665 219.506552,68.4680985 C220.759364,67.5205306 221.38577,66.1412929 221.38577,64.3303853 C221.38577,63.4565172 221.233755,62.7037271 220.929726,62.0720152 C220.625696,61.4403032 220.153926,60.882291 219.514415,60.3979785 C218.874904,59.913666 217.868461,59.3925037 216.495086,58.8344915 C214.95397,58.2133081 213.955389,57.7447884 213.499345,57.4289324 C213.0433,57.1130764 212.815278,56.7393135 212.815278,56.3076437 C212.815278,55.5390609 213.522933,55.1547694 214.938244,55.1547694 C215.735011,55.1547694 216.516053,55.2758475 217.281369,55.5180038 C218.046685,55.76016 218.869662,56.0707517 219.7503,56.4497789 L219.7503,56.4497789 L221.197062,52.9753632 C219.19466,52.0488524 217.134596,51.585597 215.016872,51.585597 C212.79431,51.585597 211.077591,52.0146347 209.866714,52.87271 C208.655837,53.7307854 208.050399,54.9441988 208.050399,56.5129501 C208.050399,57.4289324 208.194551,58.2001474 208.482855,58.8265951 C208.771159,59.4530427 209.232445,60.0084228 209.866714,60.4927353 C210.500983,60.9770478 211.494321,61.5034744 212.846729,62.0720152 C213.79027,62.4720994 214.545102,62.8221731 215.111226,63.1222363 C215.677351,63.4222994 216.075734,63.690777 216.306377,63.927669 C216.537021,64.164561 216.652342,64.4725205 216.652342,64.8515477 C216.652342,65.8622868 215.782188,66.3676563 214.04188,66.3676563 C213.192694,66.3676563 212.209839,66.2255212 211.093317,65.9412508 C209.976794,65.6569804 208.972971,65.3042746 208.08185,64.8831333 L208.08185,64.8831333 L208.08185,68.8629185 C208.868134,69.1998315 209.712078,69.4551485 210.613683,69.6288692 C211.515289,69.80259 212.605602,69.8894504 213.884624,69.8894504 Z M227.258309,69.8894504 C229.753449,69.8894504 231.627425,69.4156665 232.880237,68.4680985 C234.133049,67.5205306 234.759455,66.1412929 234.759455,64.3303853 C234.759455,63.4565172 234.60744,62.7037271 234.303411,62.0720152 C233.999381,61.4403032 233.527611,60.882291 232.8881,60.3979785 C232.248589,59.913666 231.242146,59.3925037 229.868771,58.8344915 C228.327655,58.2133081 227.329074,57.7447884 226.87303,57.4289324 C226.416985,57.1130764 226.188963,56.7393135 226.188963,56.3076437 C226.188963,55.5390609 226.896618,55.1547694 228.311929,55.1547694 C229.108696,55.1547694 229.889738,55.2758475 230.655054,55.5180038 C231.42037,55.76016 232.243347,56.0707517 233.123985,56.4497789 L233.123985,56.4497789 L234.570747,52.9753632 C232.568345,52.0488524 230.508281,51.585597 228.390557,51.585597 C226.167995,51.585597 224.451276,52.0146347 223.240399,52.87271 C222.029522,53.7307854 221.424084,54.9441988 221.424084,56.5129501 C221.424084,57.4289324 221.568236,58.2001474 221.85654,58.8265951 C222.144844,59.4530427 222.60613,60.0084228 223.240399,60.4927353 C223.874668,60.9770478 224.868006,61.5034744 226.220414,62.0720152 C227.163955,62.4720994 227.918787,62.8221731 228.484911,63.1222363 C229.051036,63.4222994 229.449419,63.690777 229.680063,63.927669 C229.910706,64.164561 230.026027,64.4725205 230.026027,64.8515477 C230.026027,65.8622868 229.155873,66.3676563 227.415565,66.3676563 C226.566379,66.3676563 225.583524,66.2255212 224.467002,65.9412508 C223.350479,65.6569804 222.346657,65.3042746 221.455535,64.8831333 L221.455535,64.8831333 L221.455535,68.8629185 C222.241819,69.1998315 223.085763,69.4551485 223.987369,69.6288692 C224.888974,69.80259 225.979287,69.8894504 227.258309,69.8894504 Z M243.273907,69.8894504 C245.968239,69.8894504 248.070238,69.0787534 249.579902,67.4573594 C251.089567,65.8359655 251.844399,63.5881238 251.844399,60.7138345 C251.844399,58.8608128 251.498435,57.2446831 250.806505,55.8654454 C250.114575,54.4862076 249.123858,53.4280901 247.834352,52.6910929 C246.544847,51.9540956 245.05615,51.585597 243.368261,51.585597 C240.652961,51.585597 238.545721,52.3857654 237.04654,53.9861023 C235.547359,55.5864393 234.797769,57.8290166 234.797769,60.7138345 C234.797769,62.5668562 235.143734,64.1882502 235.835663,65.5780164 C236.527593,66.9677827 237.51831,68.0337966 238.807816,68.7760581 C240.097321,69.5183196 241.586018,69.8894504 243.273907,69.8894504 Z M243.33681,66.0202148 C242.047304,66.0202148 241.116869,65.5727522 240.545503,64.6778269 C239.974136,63.7829017 239.688453,62.4615709 239.688453,60.7138345 C239.688453,58.9555696 239.971515,57.6421352 240.53764,56.7735313 C241.103764,55.9049274 242.026337,55.4706254 243.305358,55.4706254 C244.594864,55.4706254 245.522678,55.9075595 246.088803,56.7814277 C246.654927,57.6552959 246.937989,58.9660981 246.937989,60.7138345 C246.937989,62.4720994 246.657548,63.7960623 246.096665,64.6857233 C245.535783,65.5753843 244.615831,66.0202148 243.33681,66.0202148 Z M257.197991,61.9140872 L258,46.4845231 L252.558917,46.4845231 L253.360926,61.9140872 L257.197991,61.9140872 Z M255.263733,70 C256.123403,70 256.794365,69.7604759 257.276619,69.2814277 C257.758873,68.8023794 258,68.1469783 258,67.3152243 C258,66.4518846 257.761494,65.7885871 257.284482,65.3253316 C256.80747,64.8620762 256.133887,64.6304485 255.263733,64.6304485 C254.362127,64.6304485 253.67544,64.856812 253.203669,65.3095389 C252.731899,65.7622657 252.496014,66.4308275 252.496014,67.3152243 C252.496014,68.1680354 252.737141,68.8287008 253.219395,69.2972205 C253.701649,69.7657402 254.383095,70 255.263733,70 Z"
          id="adesso!" fill="#FFFFFF" fill-rule="nonzero"></path>
    <path d="M229.805195,188 C257.822887,188 285,185.565574 285,140.934426 C285,96.3032787 271.201299,89 231.428571,89 C191.655844,89 173.702352,94.6190429 178.668831,133.631148 C182.45671,163.385246 176.233766,180.967213 160,186.377049 C197.501772,187.459016 220.77017,188 229.805195,188 Z"
          id="Oval" fill="#C885DE"></path>
    <path d="M200.862242,154 C203.369365,154 205.25234,153.524112 206.511169,152.572335 C207.769997,151.620558 208.399411,150.235195 208.399411,148.416244 C208.399411,147.538494 208.246666,146.78236 207.941176,146.147843 C207.635687,145.513325 207.161651,144.952834 206.519069,144.466371 C205.876487,143.979907 204.865211,143.45643 203.48524,142.895939 C201.936723,142.271997 200.933348,141.801396 200.475113,141.484137 C200.016879,141.166878 199.787761,140.791455 199.787761,140.357868 C199.787761,139.585871 200.498815,139.199873 201.920922,139.199873 C202.721516,139.199873 203.506309,139.321489 204.2753,139.564721 C205.044291,139.807953 205.87122,140.119924 206.756087,140.500635 L206.756087,140.500635 L208.209797,137.010787 C206.197778,136.080161 204.127822,135.614848 201.999928,135.614848 C199.766693,135.614848 198.04173,136.045791 196.825038,136.907678 C195.608346,137.769564 195,138.988367 195,140.564086 C195,141.484137 195.144844,142.258777 195.434533,142.888008 C195.724221,143.517238 196.187723,144.075085 196.825038,144.561548 C197.462352,145.048012 198.460461,145.576777 199.819364,146.147843 C200.767435,146.549704 201.525892,146.901332 202.094735,147.202728 C202.663578,147.504124 203.063875,147.773794 203.295626,148.011739 C203.527377,148.249683 203.643252,148.55901 203.643252,148.939721 C203.643252,149.954949 202.76892,150.462563 201.020254,150.462563 C200.16699,150.462563 199.179415,150.319797 198.057531,150.034264 C196.935646,149.748731 195.927003,149.394459 195.031602,148.971447 L195.031602,148.971447 L195.031602,152.968909 C195.821662,153.307318 196.669659,153.563769 197.575594,153.738261 C198.481529,153.912754 199.577079,154 200.862242,154 Z M211.929972,133.74302 C212.804305,133.74302 213.460054,133.534158 213.89722,133.116434 C214.334387,132.69871 214.55297,132.114425 214.55297,131.363579 C214.55297,129.78786 213.678637,129 211.929972,129 C210.181307,129 209.306974,129.78786 209.306974,131.363579 C209.306974,132.949873 210.181307,133.74302 211.929972,133.74302 Z M214.331753,153.682741 L214.331753,135.94797 L209.51239,135.94797 L209.51239,153.682741 L214.331753,153.682741 Z M223.914171,154 C225.125596,154 226.128971,153.904822 226.924298,153.714467 C227.719625,153.524112 228.507051,153.180415 229.286576,152.683376 L229.286576,152.683376 L229.286576,148.543147 C228.496517,149.071912 227.706457,149.460554 226.916397,149.709074 C226.126338,149.957593 225.267806,150.081853 224.340803,150.081853 C221.83368,150.081853 220.580119,148.347504 220.580119,144.878807 C220.580119,141.304357 221.83368,139.517132 224.340803,139.517132 C224.993919,139.517132 225.647035,139.614953 226.300151,139.810596 C226.953267,140.006239 227.659053,140.257403 228.417511,140.564086 L228.417511,140.564086 L229.839618,136.820431 C228.217362,136.016709 226.384424,135.614848 224.340803,135.614848 C221.549259,135.614848 219.405564,136.410639 217.909718,138.002221 C216.413872,139.593803 215.665948,141.896574 215.665948,144.910533 C215.665948,150.970178 218.415356,154 223.914171,154 Z M233.148962,133.74302 C234.023295,133.74302 234.679044,133.534158 235.116211,133.116434 C235.553377,132.69871 235.77196,132.114425 235.77196,131.363579 C235.77196,129.78786 234.897627,129 233.148962,129 C231.400297,129 230.525964,129.78786 230.525964,131.363579 C230.525964,132.949873 231.400297,133.74302 233.148962,133.74302 Z M235.550743,153.682741 L235.550743,135.94797 L230.73138,135.94797 L230.73138,153.682741 L235.550743,153.682741 Z M242.778783,153.682741 L242.778783,129 L237.95942,129 L237.95942,153.682741 L242.778783,153.682741 Z M247.605042,133.74302 C248.479375,133.74302 249.135124,133.534158 249.57229,133.116434 C250.009457,132.69871 250.22804,132.114425 250.22804,131.363579 C250.22804,129.78786 249.353707,129 247.605042,129 C245.856377,129 244.982044,129.78786 244.982044,131.363579 C244.982044,132.949873 245.856377,133.74302 247.605042,133.74302 Z M250.006823,153.682741 L250.006823,135.94797 L245.18746,135.94797 L245.18746,153.682741 L250.006823,153.682741 Z M256.713424,154 C258.093395,154 259.212646,153.801713 260.071177,153.40514 C260.929709,153.008566 261.764538,152.297377 262.575666,151.271574 L262.575666,151.271574 L262.702076,151.271574 L263.634346,153.682741 L267,153.682741 L267,141.864848 C267,139.749788 266.367952,138.174069 265.103857,137.13769 C263.839762,136.101311 262.022624,135.583122 259.652446,135.583122 C257.176925,135.583122 254.922622,136.117174 252.889535,137.185279 L252.889535,137.185279 L254.485456,140.453046 C256.392133,139.596447 258.051258,139.168147 259.462831,139.168147 C261.29577,139.168147 262.212239,140.067047 262.212239,141.864848 L262.212239,141.864848 L262.212239,142.642132 L259.146807,142.73731 C256.502741,142.832487 254.524959,143.326882 253.21346,144.220495 C251.901961,145.114107 251.246211,146.502115 251.246211,148.384518 C251.246211,150.182318 251.733415,151.567682 252.707822,152.540609 C253.682228,153.513536 255.017429,154 256.713424,154 Z M258.530561,150.462563 C256.97151,150.462563 256.191984,149.780457 256.191984,148.416244 C256.191984,147.464467 256.534344,146.755922 257.219062,146.290609 C257.90378,145.825296 258.946659,145.571489 260.347698,145.529188 L260.347698,145.529188 L262.212239,145.465736 L262.212239,146.925127 C262.212239,147.993232 261.87778,148.849831 261.208863,149.494924 C260.539946,150.140017 259.647179,150.462563 258.530561,150.462563 Z"
          id="sicilia" fill="#FFFFFF" fill-rule="nonzero"></path>
    <path d="M45.8287628,212.247738 C73.7441503,212.247738 122.657589,206.586667 122.657589,162.10682 C122.657589,117.626973 106.483099,86.895443 66.8555994,86.895443 C27.2280997,86.895443 -4.3205588,114.324847 0.540191698,153.210851 C2.15764067,166.150443 22.9843129,165.778083 26.2192108,180.335124 C28.3199011,189.78823 22.7255511,197.999595 9.43616103,204.969218 C24.6958618,209.821565 36.8267291,212.247738 45.8287628,212.247738 Z"
          id="Oval-Copy" fill="#DD5F5F"
          transform="translate(61.351158, 149.571591) scale(-1, 1) rotate(15.000000) translate(-61.351158, -149.571591) "></path>
    <path d="M35.6910312,154 C37.9425156,154 39.617916,153.127538 40.7172323,151.382614 L40.7172323,151.382614 L40.9233541,151.382614 L41.8588301,153.682741 L45.5690227,153.682741 L45.5690227,129 L40.7172323,129 L40.7172323,134.678934 C40.7172323,135.715313 40.8387913,136.894459 41.0819094,138.216371 L41.0819094,138.216371 L40.9233541,138.216371 C39.7500453,136.482022 38.0482191,135.614848 35.8178754,135.614848 C33.6932351,135.614848 32.0257625,136.426502 30.8154575,138.04981 C29.6051525,139.673118 29,141.938875 29,144.847081 C29,147.712986 29.5945822,149.954949 30.7837465,151.57297 C31.9729108,153.19099 33.6086723,154 35.6910312,154 Z M37.3875723,150.145305 C36.2671152,150.145305 35.4056317,149.709074 34.8031218,148.836612 C34.2006119,147.96415 33.8993569,146.655457 33.8993569,144.910533 C33.8993569,143.165609 34.1979693,141.835766 34.7951941,140.921003 C35.3924188,140.006239 36.230119,139.548858 37.3082946,139.548858 C38.6295883,139.548858 39.5835623,139.961294 40.1702167,140.786168 C40.7568711,141.611041 41.0501983,142.975254 41.0501983,144.878807 L41.0501983,144.878807 L41.0501983,145.402284 C40.9973466,147.126058 40.6828787,148.347504 40.1067946,149.066624 C39.5307106,149.785745 38.6243031,150.145305 37.3875723,150.145305 Z M52.2828281,154 C53.6675439,154 54.7906435,153.801713 55.652127,153.40514 C56.5136105,153.008566 57.3513107,152.297377 58.1652276,151.271574 L58.1652276,151.271574 L58.2920718,151.271574 L59.2275477,153.682741 L62.6047743,153.682741 L62.6047743,141.864848 C62.6047743,139.749788 61.9705534,138.174069 60.7021114,137.13769 C59.4336695,136.101311 57.6102842,135.583122 55.2319556,135.583122 C52.7479235,135.583122 50.4858687,136.117174 48.4457913,137.185279 L48.4457913,137.185279 L50.0471992,140.453046 C51.9604325,139.596447 53.6252625,139.168147 55.0416893,139.168147 C56.8809301,139.168147 57.8005505,140.067047 57.8005505,141.864848 L57.8005505,141.864848 L57.8005505,142.642132 L54.7245789,142.73731 C52.0714212,142.832487 50.0868381,143.326882 48.7708296,144.220495 C47.4548211,145.114107 46.7968168,146.502115 46.7968168,148.384518 C46.7968168,150.182318 47.2856955,151.567682 48.2634528,152.540609 C49.2412101,153.513536 50.5810019,154 52.2828281,154 Z M54.1062134,150.462563 C52.5418017,150.462563 51.7595958,149.780457 51.7595958,148.416244 C51.7595958,147.464467 52.1031322,146.755922 52.7902049,146.290609 C53.4772776,145.825296 54.5237422,145.571489 55.9295987,145.529188 L55.9295987,145.529188 L57.8005505,145.465736 L57.8005505,146.925127 C57.8005505,147.993232 57.4649419,148.849831 56.7937248,149.494924 C56.1225076,150.140017 55.2266705,150.462563 54.1062134,150.462563 Z M70.9992653,154 C72.7539433,154 74.2337923,153.73033 75.4388121,153.19099 L75.4388121,153.19099 L75.4388121,149.590102 C74.254933,149.960237 73.2401794,150.145305 72.3945515,150.145305 C71.7603305,150.145305 71.2503111,149.981387 70.8644934,149.653553 C70.4786756,149.325719 70.2857668,148.818105 70.2857668,148.130711 L70.2857668,148.130711 L70.2857668,139.580584 L75.2485458,139.580584 L75.2485458,135.94797 L70.2857668,135.94797 L70.2857668,132.172589 L67.1939396,132.172589 L65.7986534,135.916244 L63.1349254,137.534264 L63.1349254,139.580584 L65.4498319,139.580584 L65.4498319,148.130711 C65.4498319,150.08714 65.891144,151.554463 66.7737682,152.532678 C67.6563923,153.510893 69.0648914,154 70.9992653,154 Z M80.6780538,154 C82.0627696,154 83.1858692,153.801713 84.0473527,153.40514 C84.9088362,153.008566 85.7465363,152.297377 86.5604532,151.271574 L86.5604532,151.271574 L86.6872974,151.271574 L87.6227734,153.682741 L91,153.682741 L91,141.864848 C91,139.749788 90.365779,138.174069 89.0973371,137.13769 C87.8288952,136.101311 86.0055099,135.583122 83.6271813,135.583122 C81.1431492,135.583122 78.8810944,136.117174 76.841017,137.185279 L76.841017,137.185279 L78.4424249,140.453046 C80.3556581,139.596447 82.0204882,139.168147 83.436915,139.168147 C85.2761558,139.168147 86.1957762,140.067047 86.1957762,141.864848 L86.1957762,141.864848 L86.1957762,142.642132 L83.1198045,142.73731 C80.4666468,142.832487 78.4820637,143.326882 77.1660552,144.220495 C75.8500467,145.114107 75.1920425,146.502115 75.1920425,148.384518 C75.1920425,150.182318 75.6809211,151.567682 76.6586784,152.540609 C77.6364358,153.513536 78.9762276,154 80.6780538,154 Z M82.5014391,150.462563 C80.9370274,150.462563 80.1548215,149.780457 80.1548215,148.416244 C80.1548215,147.464467 80.4983579,146.755922 81.1854306,146.290609 C81.8725033,145.825296 82.9189679,145.571489 84.3248244,145.529188 L84.3248244,145.529188 L86.1957762,145.465736 L86.1957762,146.925127 C86.1957762,147.993232 85.8601676,148.849831 85.1889504,149.494924 C84.5177332,150.140017 83.6218961,150.462563 82.5014391,150.462563 Z"
          id="data" fill="#FFFFFF" fill-rule="nonzero"></path>
  </g>
</svg>
